<?xml version="1.0" encoding="UTF-8"?>
<svg version="1.1" viewBox="0 0 32.56 32.56" xmlns="http://www.w3.org/2000/svg">
    <g id="ko-fi">
        <circle id="a" cx="16.28" cy="16.28" r="16.28" fill="#29abe0"/>
        <path d="m22.258 8.8h1.6076c3.1008 0 5.6145 2.5137 5.6145 5.6145v0.33002c0 3.1008-2.5137 5.6145-5.6145 5.6145h-1.6076v1.6898c0 1.4311-1.1602 2.5913-2.5913 2.5913h-12.235c-1.4311 0-2.5913-1.1602-2.5913-2.5913v-11.953c0-0.71556 0.58008-1.2956 1.2956-1.2956zm0 2.9968v5.5654h1.4656c1.5368 0 2.7827-1.2459 2.7827-2.7827 0-1.5368-1.2459-2.7827-2.7827-2.7827z"
              fill="#fff"/>
        <g id="b" transform="translate(4.84,8.8)" fill="#ff5e5b">
            <path d="m8.36 5.2768c0.40029-1.1712 1.3489-1.7568 2.8459-1.7568 2.2455 0 3.078 2.7937 1.9009 4.62-0.78469 1.2176-2.367 2.7576-4.7469 4.62-2.3799-1.8624-3.9622-3.4024-4.7469-4.62-1.177-1.8263-0.34457-4.62 1.9009-4.62 1.497 0 2.4456 0.58562 2.8459 1.7568z"/>
        </g>
    </g>
</svg>
